<svg width="47" height="40" viewBox="0 0 47 40" fill="none" xmlns="http://www.w3.org/2000/svg">
<path d="M9.76318 30.1655C9.76318 29.9995 9.73877 29.8506 9.68994 29.7188C9.64111 29.582 9.55078 29.4551 9.41895 29.3379C9.28711 29.2207 9.09668 29.1035 8.84766 28.9863C8.60352 28.8643 8.28125 28.7373 7.88086 28.6055C7.41211 28.4492 6.96045 28.2734 6.52588 28.0781C6.09131 27.8779 5.70312 27.646 5.36133 27.3823C5.01953 27.1138 4.74854 26.8013 4.54834 26.4448C4.34814 26.0835 4.24805 25.6636 4.24805 25.1851C4.24805 24.7261 4.35059 24.3135 4.55566 23.9473C4.76074 23.5762 5.04639 23.2612 5.4126 23.0024C5.78369 22.7388 6.21826 22.5386 6.71631 22.4019C7.21436 22.2603 7.75879 22.1895 8.34961 22.1895C9.13086 22.1895 9.81934 22.3262 10.415 22.5996C11.0156 22.8682 11.4844 23.2515 11.8213 23.7495C12.1631 24.2427 12.334 24.8262 12.334 25.5H9.77783C9.77783 25.2314 9.72168 24.9946 9.60938 24.7896C9.50195 24.5845 9.33838 24.4233 9.11865 24.3062C8.89893 24.189 8.62305 24.1304 8.29102 24.1304C7.96875 24.1304 7.69775 24.1792 7.47803 24.2769C7.2583 24.3745 7.09229 24.5063 6.97998 24.6724C6.86768 24.8335 6.81152 25.0117 6.81152 25.207C6.81152 25.3682 6.85547 25.5146 6.94336 25.6465C7.03613 25.7734 7.16553 25.8931 7.33154 26.0054C7.50244 26.1177 7.70752 26.2251 7.94678 26.3276C8.19092 26.4302 8.46436 26.5303 8.76709 26.6279C9.3335 26.8086 9.83643 27.0112 10.2759 27.2358C10.7202 27.4556 11.0938 27.707 11.3965 27.9902C11.7041 28.2686 11.936 28.5859 12.0923 28.9424C12.2534 29.2988 12.334 29.7017 12.334 30.1509C12.334 30.6294 12.2412 31.0542 12.0557 31.4253C11.8701 31.7964 11.604 32.1113 11.2573 32.3701C10.9106 32.624 10.4956 32.8169 10.0122 32.9487C9.52881 33.0806 8.98926 33.1465 8.39355 33.1465C7.84668 33.1465 7.30713 33.0781 6.7749 32.9414C6.24756 32.7998 5.76904 32.585 5.33936 32.2969C4.90967 32.0039 4.56543 31.6304 4.30664 31.1763C4.05273 30.7173 3.92578 30.1729 3.92578 29.543H6.50391C6.50391 29.8555 6.54541 30.1191 6.62842 30.334C6.71143 30.5488 6.8335 30.7222 6.99463 30.854C7.15576 30.981 7.35352 31.0737 7.58789 31.1323C7.82227 31.186 8.09082 31.2129 8.39355 31.2129C8.7207 31.2129 8.98438 31.1665 9.18457 31.0737C9.38477 30.9761 9.53125 30.8491 9.62402 30.6929C9.7168 30.5317 9.76318 30.356 9.76318 30.1655ZM18.8232 22.3359V33H16.2524V22.3359H18.8232ZM22.0312 22.3359V24.3208H13.1177V22.3359H22.0312ZM31.9409 27.4556V27.8877C31.9409 28.7031 31.8262 29.4355 31.5967 30.085C31.3721 30.7295 31.0522 31.2812 30.6372 31.7402C30.2222 32.1943 29.7314 32.5435 29.165 32.7876C28.5986 33.0269 27.9736 33.1465 27.29 33.1465C26.6016 33.1465 25.9717 33.0269 25.4004 32.7876C24.834 32.5435 24.3408 32.1943 23.9209 31.7402C23.5059 31.2812 23.1836 30.7295 22.9541 30.085C22.7295 29.4355 22.6172 28.7031 22.6172 27.8877V27.4556C22.6172 26.6401 22.7295 25.9077 22.9541 25.2583C23.1836 24.6089 23.5034 24.0571 23.9136 23.603C24.3286 23.144 24.8193 22.7949 25.3857 22.5557C25.957 22.3115 26.5869 22.1895 27.2754 22.1895C27.959 22.1895 28.584 22.3115 29.1504 22.5557C29.7217 22.7949 30.2148 23.144 30.6299 23.603C31.0449 24.0571 31.3672 24.6089 31.5967 25.2583C31.8262 25.9077 31.9409 26.6401 31.9409 27.4556ZM29.3335 27.8877V27.4409C29.3335 26.9136 29.2871 26.4497 29.1943 26.0493C29.1064 25.644 28.9746 25.3047 28.7988 25.0312C28.623 24.7578 28.4058 24.5527 28.147 24.416C27.8931 24.2744 27.6025 24.2036 27.2754 24.2036C26.9336 24.2036 26.6357 24.2744 26.3818 24.416C26.1279 24.5527 25.9155 24.7578 25.7446 25.0312C25.5737 25.3047 25.4443 25.644 25.3564 26.0493C25.2734 26.4497 25.2319 26.9136 25.2319 27.4409V27.8877C25.2319 28.4102 25.2734 28.874 25.3564 29.2793C25.4443 29.6797 25.5737 30.019 25.7446 30.2974C25.9204 30.5757 26.1353 30.7856 26.3892 30.9272C26.6479 31.0688 26.9482 31.1396 27.29 31.1396C27.6172 31.1396 27.9077 31.0688 28.1616 30.9272C28.4155 30.7856 28.6279 30.5757 28.7988 30.2974C28.9746 30.019 29.1064 29.6797 29.1943 29.2793C29.2871 28.874 29.3335 28.4102 29.3335 27.8877ZM37.5293 29.3818H34.8779V27.397H37.5293C37.8906 27.397 38.1836 27.3359 38.4082 27.2139C38.6328 27.0918 38.7964 26.9233 38.8989 26.7085C39.0063 26.4888 39.0601 26.2422 39.0601 25.9688C39.0601 25.6758 39.0063 25.4048 38.8989 25.1558C38.7964 24.9067 38.6328 24.7065 38.4082 24.5552C38.1836 24.3989 37.8906 24.3208 37.5293 24.3208H35.8447V33H33.2739V22.3359H37.5293C38.3838 22.3359 39.1187 22.4922 39.7339 22.8047C40.354 23.1172 40.8301 23.5469 41.1621 24.0938C41.4941 24.6357 41.6602 25.2559 41.6602 25.9541C41.6602 26.6426 41.4941 27.2432 41.1621 27.7559C40.8301 28.2686 40.354 28.6689 39.7339 28.957C39.1187 29.2402 38.3838 29.3818 37.5293 29.3818Z" fill="white"/>
<path d="M15.9932 11.3018V15.6816C15.8125 15.8818 15.5342 16.0967 15.1582 16.3262C14.7871 16.5508 14.3184 16.7437 13.752 16.9048C13.1855 17.0659 12.519 17.1465 11.7524 17.1465C11.0444 17.1465 10.4023 17.0342 9.82617 16.8096C9.25 16.5801 8.75439 16.2456 8.33936 15.8062C7.9292 15.3618 7.61182 14.8198 7.38721 14.1802C7.16748 13.5356 7.05762 12.7983 7.05762 11.9683V11.375C7.05762 10.5449 7.16992 9.80762 7.39453 9.16309C7.61914 8.51855 7.93408 7.97656 8.33936 7.53711C8.74951 7.09277 9.23047 6.75586 9.78223 6.52637C10.3389 6.29688 10.9492 6.18213 11.6133 6.18213C12.5947 6.18213 13.3931 6.33838 14.0083 6.65088C14.6235 6.9585 15.0898 7.38574 15.4072 7.93262C15.7246 8.47461 15.9175 9.10205 15.9858 9.81494H13.5176C13.4688 9.46338 13.376 9.16553 13.2393 8.92139C13.1074 8.67236 12.917 8.48438 12.668 8.35742C12.4189 8.22559 12.0967 8.15967 11.7012 8.15967C11.3936 8.15967 11.1128 8.22559 10.8589 8.35742C10.6099 8.48926 10.3975 8.68945 10.2217 8.95801C10.0459 9.22168 9.90918 9.55371 9.81152 9.9541C9.71875 10.3545 9.67236 10.8232 9.67236 11.3604V11.9683C9.67236 12.5005 9.71631 12.9668 9.8042 13.3672C9.89697 13.7676 10.0337 14.1021 10.2144 14.3706C10.3999 14.6343 10.6343 14.8345 10.9175 14.9712C11.2056 15.103 11.5449 15.1689 11.9355 15.1689C12.209 15.1689 12.4434 15.147 12.6387 15.103C12.834 15.0542 12.9951 14.9956 13.1221 14.9272C13.2539 14.854 13.354 14.7856 13.4224 14.7222V13.0669H11.6353V11.3018H15.9932ZM22.0137 8.57715L19.4136 17H16.6523L20.5708 6.33594H22.3213L22.0137 8.57715ZM24.167 17L21.5596 8.57715L21.2227 6.33594H22.9951L26.9355 17H24.167ZM24.0645 13.0229V15.0078H18.5933V13.0229H24.0645ZM28.9937 6.33594H31.0884L33.4688 13.7554L35.8491 6.33594H37.9438L34.3184 17H32.6191L28.9937 6.33594ZM27.7192 6.33594H29.8872L30.29 14.5098V17H27.7192V6.33594ZM37.0503 6.33594H39.2256V17H36.6475V14.5098L37.0503 6.33594Z" fill="white"/>
<path d="M0.957031 12C0.957031 6.7533 5.21033 2.5 10.457 2.5H45.957V19.5V27C45.957 32.2467 41.7037 36.5 36.457 36.5H0.957031V19.5V12Z" stroke="white"/>
</svg>
