<svg width="35" height="35" viewBox="0 0 35 35" fill="none" xmlns="http://www.w3.org/2000/svg">
<path fill-rule="evenodd" clip-rule="evenodd" d="M30 1H28V5H24V7H28V11H30V7H34V5H30V1Z" fill="#D9D9D9"/>
<path fill-rule="evenodd" clip-rule="evenodd" d="M33.8071 23.8506C35.2236 20.2131 35.3834 16.2064 34.2609 12.4678L32.3492 13.0417C32.7726 14.4536 33 15.9503 33 17.5C33 26.0604 26.0604 33 17.5 33C8.93959 33 2 26.0604 2 17.5C2 8.93959 8.93959 2 17.5 2C19.0965 2 20.6366 2.24136 22.0858 2.68959L22.6761 0.783017C18.9472 -0.371578 14.9394 -0.246293 11.2899 1.13895C7.64034 2.52419 4.55875 5.08985 2.53513 8.42792C0.511504 11.766 -0.337963 15.6848 0.121813 19.5612C0.581589 23.4376 2.32421 27.049 5.07256 29.8211C7.8209 32.5931 11.4172 34.3667 15.2895 34.8598C19.1618 35.3529 23.0877 34.5372 26.4431 32.5423C29.7984 30.5475 32.3905 27.488 33.8071 23.8506Z" fill="#D9D9D9"/>
<path d="M14.123 12.3359V23H11.6548V15.1191L9.22314 15.8296V13.9546L13.896 12.3359H14.123ZM24.7651 20.063C24.7651 20.7417 24.604 21.3105 24.2817 21.7695C23.9644 22.2285 23.5249 22.5728 22.9634 22.8022C22.4067 23.0317 21.772 23.1465 21.0591 23.1465C20.3511 23.1465 19.7139 23.0317 19.1475 22.8022C18.5859 22.5728 18.1416 22.2285 17.8145 21.7695C17.4873 21.3105 17.3237 20.7417 17.3237 20.063C17.3237 19.5991 17.4165 19.1841 17.6021 18.8179C17.7925 18.4468 18.0562 18.1318 18.3931 17.873C18.73 17.6143 19.123 17.4165 19.5723 17.2798C20.0264 17.1431 20.5171 17.0747 21.0444 17.0747C21.7573 17.0747 22.3945 17.1968 22.9561 17.4409C23.5176 17.6802 23.9595 18.022 24.2817 18.4663C24.604 18.9106 24.7651 19.4429 24.7651 20.063ZM22.2822 19.8652C22.2822 19.5723 22.231 19.3257 22.1284 19.1255C22.0259 18.9204 21.8818 18.7642 21.6963 18.6567C21.5107 18.5493 21.2935 18.4956 21.0444 18.4956C20.8003 18.4956 20.583 18.5493 20.3926 18.6567C20.207 18.7642 20.0605 18.9204 19.9531 19.1255C19.8506 19.3257 19.7993 19.5723 19.7993 19.8652C19.7993 20.1484 19.853 20.395 19.9604 20.605C20.0679 20.8101 20.2144 20.9688 20.3999 21.0811C20.5903 21.1885 20.8101 21.2422 21.0591 21.2422C21.3081 21.2422 21.5229 21.1885 21.7036 21.0811C21.8892 20.9688 22.0308 20.8101 22.1284 20.605C22.231 20.395 22.2822 20.1484 22.2822 19.8652ZM24.5454 15.1851C24.5454 15.7417 24.3965 16.23 24.0986 16.6499C23.8057 17.0649 23.3955 17.3896 22.8682 17.624C22.3457 17.8535 21.7427 17.9683 21.0591 17.9683C20.3804 17.9683 19.7749 17.8535 19.2427 17.624C18.7153 17.3896 18.3003 17.0649 17.9976 16.6499C17.6997 16.23 17.5508 15.7417 17.5508 15.1851C17.5508 14.5308 17.6997 13.9814 17.9976 13.5371C18.3003 13.0928 18.7153 12.7559 19.2427 12.5264C19.77 12.2969 20.3706 12.1821 21.0444 12.1821C21.728 12.1821 22.3335 12.2969 22.8608 12.5264C23.3882 12.7559 23.8008 13.0928 24.0986 13.5371C24.3965 13.9814 24.5454 14.5308 24.5454 15.1851ZM22.0771 15.3169C22.0771 15.063 22.0381 14.8457 21.96 14.665C21.8818 14.4795 21.7671 14.3379 21.6157 14.2402C21.4644 14.1377 21.2739 14.0864 21.0444 14.0864C20.8247 14.0864 20.6392 14.1353 20.4878 14.2329C20.3364 14.3306 20.2217 14.4722 20.1436 14.6577C20.0654 14.8384 20.0264 15.0581 20.0264 15.3169C20.0264 15.5708 20.0654 15.793 20.1436 15.9834C20.2217 16.1738 20.3364 16.3228 20.4878 16.4302C20.644 16.5376 20.8345 16.5913 21.0591 16.5913C21.2886 16.5913 21.4766 16.5376 21.623 16.4302C21.7744 16.3228 21.8867 16.1738 21.96 15.9834C22.0381 15.793 22.0771 15.5708 22.0771 15.3169Z" fill="white"/>
</svg>
