<svg width="50" height="36" viewBox="0 0 50 36" fill="none" xmlns="http://www.w3.org/2000/svg">
<path d="M11.108 2L11.6078 1.98438L11.5748 0.927244L10.7788 1.62371L11.108 2ZM1.06432 25.5902L1.56352 25.5589L1.56232 25.5455L1.06432 25.5902ZM11.5297 15.4906L11.0299 15.5063L11.0445 15.9711L11.5092 15.9902L11.5297 15.4906ZM10.7788 1.62371C1.33119 9.8903 0.167693 21.1968 0.566329 25.6349L1.56232 25.5455C1.18236 21.3153 2.3032 10.3686 11.4373 2.37629L10.7788 1.62371ZM12.0294 15.475L11.6078 1.98438L10.6083 2.01562L11.0299 15.5063L12.0294 15.475ZM11.5092 15.9902C16.8619 16.2101 21.0453 20.1933 21.0453 24.9807H22.0453C22.0453 19.5685 17.3457 15.2291 11.5502 14.9911L11.5092 15.9902ZM21.0453 24.9807C21.0453 29.9054 16.6164 33.9807 11.0453 33.9807V34.9807C17.0722 34.9807 22.0453 30.5495 22.0453 24.9807H21.0453ZM11.0453 33.9807C5.72233 33.9807 1.8572 30.2441 1.56334 25.5589L0.565305 25.6215C0.89397 30.8617 5.2229 34.9807 11.0453 34.9807V33.9807Z" fill="#E50539"/>
<path d="M38.653 2.47998L39.1527 2.46436L39.1197 1.40722L38.3237 2.10369L38.653 2.47998ZM28.6092 26.0702L29.1084 26.0389L29.1072 26.0254L28.6092 26.0702ZM39.0746 15.9706L38.5749 15.9862L38.5894 16.4511L39.0541 16.4702L39.0746 15.9706ZM38.3237 2.10369C28.8761 10.3703 27.7126 21.6768 28.1113 26.1149L29.1072 26.0254C28.7273 21.7953 29.8481 10.8486 38.9822 2.85627L38.3237 2.10369ZM39.5744 15.955L39.1527 2.46436L38.1532 2.4956L38.5749 15.9862L39.5744 15.955ZM39.0541 16.4702C44.4069 16.6901 48.5902 20.6733 48.5902 25.4607H49.5902C49.5902 20.0484 44.8907 15.7091 39.0951 15.471L39.0541 16.4702ZM48.5902 25.4607C48.5902 30.3853 44.1613 34.4607 38.5902 34.4607V35.4607C44.6171 35.4607 49.5902 31.0294 49.5902 25.4607H48.5902ZM38.5902 34.4607C33.2673 34.4607 29.4021 30.7241 29.1083 26.0389L28.1102 26.1015C28.4389 31.3416 32.7678 35.4607 38.5902 35.4607V34.4607Z" fill="#E50539"/>
</svg>
